<svg xmlns="http://www.w3.org/2000/svg" xmlns:xlink="http://www.w3.org/1999/xlink" width="200" zoomAndPan="magnify" viewBox="0 0 150 74.999997" height="100" preserveAspectRatio="xMidYMid meet" version="1.0"><defs><g/><clipPath id="2da54a034a"><path d="M 7.503906 4.777344 L 143.894531 4.777344 L 143.894531 72.277344 L 7.503906 72.277344 Z M 7.503906 4.777344 " clip-rule="nonzero"/></clipPath><clipPath id="c0dcfc1778"><path d="M 11.253906 4.777344 L 139.988281 4.777344 C 142.0625 4.777344 143.738281 6.457031 143.738281 8.527344 L 143.738281 68.65625 C 143.738281 70.730469 142.0625 72.40625 139.988281 72.40625 L 11.253906 72.40625 C 9.179688 72.40625 7.503906 70.730469 7.503906 68.65625 L 7.503906 8.527344 C 7.503906 6.457031 9.179688 4.777344 11.253906 4.777344 Z M 11.253906 4.777344 " clip-rule="nonzero"/></clipPath><linearGradient x1="-0.00000123063" gradientTransform="matrix(0.468706, 0, 0, 0.468706, 0.000000576805, 0.00000373214)" y1="96.192001" x2="387.555515" gradientUnits="userSpaceOnUse" y2="96.192001" id="8f7335b512"><stop stop-opacity="1" stop-color="rgb(0%, 18.798828%, 28.599548%)" offset="0"/><stop stop-opacity="1" stop-color="rgb(0.15564%, 18.962097%, 28.775024%)" offset="0.0078125"/><stop stop-opacity="1" stop-color="rgb(0.466919%, 19.290161%, 29.127502%)" offset="0.015625"/><stop stop-opacity="1" stop-color="rgb(0.779724%, 19.618225%, 29.47998%)" offset="0.0234375"/><stop stop-opacity="1" stop-color="rgb(1.092529%, 19.946289%, 29.832458%)" offset="0.03125"/><stop stop-opacity="1" stop-color="rgb(1.405334%, 20.274353%, 30.183411%)" offset="0.0390625"/><stop stop-opacity="1" stop-color="rgb(1.716614%, 20.603943%, 30.535889%)" offset="0.046875"/><stop stop-opacity="1" stop-color="rgb(2.029419%, 20.932007%, 30.888367%)" offset="0.0546875"/><stop stop-opacity="1" stop-color="rgb(2.342224%, 21.260071%, 31.240845%)" offset="0.0625"/><stop stop-opacity="1" stop-color="rgb(2.655029%, 21.588135%, 31.593323%)" offset="0.0703125"/><stop stop-opacity="1" stop-color="rgb(2.967834%, 21.916199%, 31.945801%)" offset="0.078125"/><stop stop-opacity="1" stop-color="rgb(3.279114%, 22.244263%, 32.298279%)" offset="0.0859375"/><stop stop-opacity="1" stop-color="rgb(3.591919%, 22.572327%, 32.650757%)" offset="0.09375"/><stop stop-opacity="1" stop-color="rgb(3.904724%, 22.900391%, 33.003235%)" offset="0.101562"/><stop stop-opacity="1" stop-color="rgb(4.217529%, 23.228455%, 33.355713%)" offset="0.109375"/><stop stop-opacity="1" stop-color="rgb(4.530334%, 23.556519%, 33.708191%)" offset="0.117188"/><stop stop-opacity="1" stop-color="rgb(4.841614%, 23.884583%, 34.059143%)" offset="0.125"/><stop stop-opacity="1" stop-color="rgb(5.154419%, 24.212646%, 34.411621%)" offset="0.132812"/><stop stop-opacity="1" stop-color="rgb(5.467224%, 24.54071%, 34.764099%)" offset="0.140625"/><stop stop-opacity="1" stop-color="rgb(5.780029%, 24.868774%, 35.116577%)" offset="0.148438"/><stop stop-opacity="1" stop-color="rgb(6.092834%, 25.196838%, 35.469055%)" offset="0.15625"/><stop stop-opacity="1" stop-color="rgb(6.404114%, 25.524902%, 35.821533%)" offset="0.164062"/><stop stop-opacity="1" stop-color="rgb(6.716919%, 25.852966%, 36.174011%)" offset="0.171875"/><stop stop-opacity="1" stop-color="rgb(7.029724%, 26.18103%, 36.526489%)" offset="0.179688"/><stop stop-opacity="1" stop-color="rgb(7.342529%, 26.509094%, 36.878967%)" offset="0.1875"/><stop stop-opacity="1" stop-color="rgb(7.655334%, 26.837158%, 37.231445%)" offset="0.195312"/><stop stop-opacity="1" stop-color="rgb(7.966614%, 27.165222%, 37.583923%)" offset="0.203125"/><stop stop-opacity="1" stop-color="rgb(8.279419%, 27.493286%, 37.936401%)" offset="0.210938"/><stop stop-opacity="1" stop-color="rgb(8.592224%, 27.82135%, 38.287354%)" offset="0.21875"/><stop stop-opacity="1" stop-color="rgb(8.905029%, 28.149414%, 38.639832%)" offset="0.226563"/><stop stop-opacity="1" stop-color="rgb(9.217834%, 28.477478%, 38.99231%)" offset="0.234375"/><stop stop-opacity="1" stop-color="rgb(9.529114%, 28.805542%, 39.344788%)" offset="0.242188"/><stop stop-opacity="1" stop-color="rgb(9.841919%, 29.135132%, 39.697266%)" offset="0.25"/><stop stop-opacity="1" stop-color="rgb(10.154724%, 29.463196%, 40.049744%)" offset="0.257813"/><stop stop-opacity="1" stop-color="rgb(10.467529%, 29.79126%, 40.402222%)" offset="0.265625"/><stop stop-opacity="1" stop-color="rgb(10.780334%, 30.119324%, 40.7547%)" offset="0.273438"/><stop stop-opacity="1" stop-color="rgb(11.091614%, 30.447388%, 41.107178%)" offset="0.28125"/><stop stop-opacity="1" stop-color="rgb(11.404419%, 30.775452%, 41.459656%)" offset="0.289063"/><stop stop-opacity="1" stop-color="rgb(11.717224%, 31.103516%, 41.812134%)" offset="0.296875"/><stop stop-opacity="1" stop-color="rgb(12.030029%, 31.43158%, 42.163086%)" offset="0.304688"/><stop stop-opacity="1" stop-color="rgb(12.342834%, 31.759644%, 42.515564%)" offset="0.3125"/><stop stop-opacity="1" stop-color="rgb(12.654114%, 32.087708%, 42.868042%)" offset="0.320313"/><stop stop-opacity="1" stop-color="rgb(12.966919%, 32.415771%, 43.22052%)" offset="0.328125"/><stop stop-opacity="1" stop-color="rgb(13.279724%, 32.743835%, 43.572998%)" offset="0.335938"/><stop stop-opacity="1" stop-color="rgb(13.592529%, 33.071899%, 43.925476%)" offset="0.34375"/><stop stop-opacity="1" stop-color="rgb(13.905334%, 33.399963%, 44.277954%)" offset="0.351562"/><stop stop-opacity="1" stop-color="rgb(14.216614%, 33.728027%, 44.630432%)" offset="0.359375"/><stop stop-opacity="1" stop-color="rgb(14.529419%, 34.056091%, 44.98291%)" offset="0.367188"/><stop stop-opacity="1" stop-color="rgb(14.842224%, 34.384155%, 45.335388%)" offset="0.375"/><stop stop-opacity="1" stop-color="rgb(15.155029%, 34.712219%, 45.687866%)" offset="0.382813"/><stop stop-opacity="1" stop-color="rgb(15.467834%, 35.040283%, 46.038818%)" offset="0.390625"/><stop stop-opacity="1" stop-color="rgb(15.779114%, 35.368347%, 46.391296%)" offset="0.398438"/><stop stop-opacity="1" stop-color="rgb(16.091919%, 35.696411%, 46.743774%)" offset="0.40625"/><stop stop-opacity="1" stop-color="rgb(16.404724%, 36.024475%, 47.096252%)" offset="0.414062"/><stop stop-opacity="1" stop-color="rgb(16.717529%, 36.352539%, 47.44873%)" offset="0.421875"/><stop stop-opacity="1" stop-color="rgb(17.030334%, 36.680603%, 47.801208%)" offset="0.429688"/><stop stop-opacity="1" stop-color="rgb(17.341614%, 37.008667%, 48.153687%)" offset="0.4375"/><stop stop-opacity="1" stop-color="rgb(17.654419%, 37.338257%, 48.506165%)" offset="0.445313"/><stop stop-opacity="1" stop-color="rgb(17.967224%, 37.666321%, 48.858643%)" offset="0.453125"/><stop stop-opacity="1" stop-color="rgb(18.280029%, 37.994385%, 49.211121%)" offset="0.460938"/><stop stop-opacity="1" stop-color="rgb(18.592834%, 38.322449%, 49.563599%)" offset="0.46875"/><stop stop-opacity="1" stop-color="rgb(18.904114%, 38.650513%, 49.914551%)" offset="0.476563"/><stop stop-opacity="1" stop-color="rgb(19.216919%, 38.978577%, 50.267029%)" offset="0.484375"/><stop stop-opacity="1" stop-color="rgb(19.529724%, 39.306641%, 50.619507%)" offset="0.492188"/><stop stop-opacity="1" stop-color="rgb(19.842529%, 39.634705%, 50.971985%)" offset="0.5"/><stop stop-opacity="1" stop-color="rgb(20.155334%, 39.962769%, 51.324463%)" offset="0.507813"/><stop stop-opacity="1" stop-color="rgb(20.466614%, 40.290833%, 51.676941%)" offset="0.515625"/><stop stop-opacity="1" stop-color="rgb(20.779419%, 40.618896%, 52.029419%)" offset="0.523438"/><stop stop-opacity="1" stop-color="rgb(21.092224%, 40.94696%, 52.381897%)" offset="0.53125"/><stop stop-opacity="1" stop-color="rgb(21.405029%, 41.275024%, 52.734375%)" offset="0.539062"/><stop stop-opacity="1" stop-color="rgb(21.717834%, 41.603088%, 53.086853%)" offset="0.546875"/><stop stop-opacity="1" stop-color="rgb(22.029114%, 41.931152%, 53.439331%)" offset="0.554688"/><stop stop-opacity="1" stop-color="rgb(22.341919%, 42.259216%, 53.791809%)" offset="0.5625"/><stop stop-opacity="1" stop-color="rgb(22.654724%, 42.58728%, 54.142761%)" offset="0.570312"/><stop stop-opacity="1" stop-color="rgb(22.967529%, 42.915344%, 54.495239%)" offset="0.578125"/><stop stop-opacity="1" stop-color="rgb(23.280334%, 43.243408%, 54.847717%)" offset="0.585937"/><stop stop-opacity="1" stop-color="rgb(23.591614%, 43.571472%, 55.200195%)" offset="0.59375"/><stop stop-opacity="1" stop-color="rgb(23.904419%, 43.899536%, 55.552673%)" offset="0.601563"/><stop stop-opacity="1" stop-color="rgb(24.217224%, 44.2276%, 55.905151%)" offset="0.609375"/><stop stop-opacity="1" stop-color="rgb(24.530029%, 44.555664%, 56.257629%)" offset="0.617188"/><stop stop-opacity="1" stop-color="rgb(24.842834%, 44.883728%, 56.610107%)" offset="0.625"/><stop stop-opacity="1" stop-color="rgb(25.154114%, 45.211792%, 56.962585%)" offset="0.632813"/><stop stop-opacity="1" stop-color="rgb(25.466919%, 45.541382%, 57.315063%)" offset="0.640625"/><stop stop-opacity="1" stop-color="rgb(25.779724%, 45.869446%, 57.667542%)" offset="0.648438"/><stop stop-opacity="1" stop-color="rgb(26.092529%, 46.19751%, 58.018494%)" offset="0.65625"/><stop stop-opacity="1" stop-color="rgb(26.405334%, 46.525574%, 58.370972%)" offset="0.664062"/><stop stop-opacity="1" stop-color="rgb(26.716614%, 46.853638%, 58.72345%)" offset="0.671875"/><stop stop-opacity="1" stop-color="rgb(27.029419%, 47.181702%, 59.075928%)" offset="0.679688"/><stop stop-opacity="1" stop-color="rgb(27.342224%, 47.509766%, 59.428406%)" offset="0.6875"/><stop stop-opacity="1" stop-color="rgb(27.655029%, 47.83783%, 59.780884%)" offset="0.695313"/><stop stop-opacity="1" stop-color="rgb(27.967834%, 48.165894%, 60.133362%)" offset="0.703125"/><stop stop-opacity="1" stop-color="rgb(28.279114%, 48.493958%, 60.48584%)" offset="0.710938"/><stop stop-opacity="1" stop-color="rgb(28.591919%, 48.822021%, 60.838318%)" offset="0.71875"/><stop stop-opacity="1" stop-color="rgb(28.904724%, 49.150085%, 61.190796%)" offset="0.726563"/><stop stop-opacity="1" stop-color="rgb(29.217529%, 49.478149%, 61.543274%)" offset="0.734375"/><stop stop-opacity="1" stop-color="rgb(29.530334%, 49.806213%, 61.894226%)" offset="0.742188"/><stop stop-opacity="1" stop-color="rgb(29.841614%, 50.134277%, 62.246704%)" offset="0.75"/><stop stop-opacity="1" stop-color="rgb(30.154419%, 50.462341%, 62.599182%)" offset="0.757812"/><stop stop-opacity="1" stop-color="rgb(30.467224%, 50.790405%, 62.95166%)" offset="0.765625"/><stop stop-opacity="1" stop-color="rgb(30.780029%, 51.118469%, 63.304138%)" offset="0.773438"/><stop stop-opacity="1" stop-color="rgb(31.092834%, 51.446533%, 63.656616%)" offset="0.78125"/><stop stop-opacity="1" stop-color="rgb(31.404114%, 51.774597%, 64.009094%)" offset="0.789062"/><stop stop-opacity="1" stop-color="rgb(31.716919%, 52.102661%, 64.361572%)" offset="0.796875"/><stop stop-opacity="1" stop-color="rgb(32.029724%, 52.430725%, 64.71405%)" offset="0.804688"/><stop stop-opacity="1" stop-color="rgb(32.342529%, 52.758789%, 65.066528%)" offset="0.8125"/><stop stop-opacity="1" stop-color="rgb(32.655334%, 53.086853%, 65.419006%)" offset="0.820313"/><stop stop-opacity="1" stop-color="rgb(32.966614%, 53.414917%, 65.771484%)" offset="0.828125"/><stop stop-opacity="1" stop-color="rgb(33.279419%, 53.744507%, 66.122437%)" offset="0.835938"/><stop stop-opacity="1" stop-color="rgb(33.592224%, 54.072571%, 66.474915%)" offset="0.84375"/><stop stop-opacity="1" stop-color="rgb(33.905029%, 54.400635%, 66.827393%)" offset="0.851563"/><stop stop-opacity="1" stop-color="rgb(34.217834%, 54.728699%, 67.179871%)" offset="0.859375"/><stop stop-opacity="1" stop-color="rgb(34.529114%, 55.056763%, 67.532349%)" offset="0.867188"/><stop stop-opacity="1" stop-color="rgb(34.841919%, 55.384827%, 67.884827%)" offset="0.875"/><stop stop-opacity="1" stop-color="rgb(35.154724%, 55.712891%, 68.237305%)" offset="0.882812"/><stop stop-opacity="1" stop-color="rgb(35.467529%, 56.040955%, 68.589783%)" offset="0.890625"/><stop stop-opacity="1" stop-color="rgb(35.780334%, 56.369019%, 68.942261%)" offset="0.898438"/><stop stop-opacity="1" stop-color="rgb(36.091614%, 56.697083%, 69.294739%)" offset="0.90625"/><stop stop-opacity="1" stop-color="rgb(36.404419%, 57.025146%, 69.647217%)" offset="0.914062"/><stop stop-opacity="1" stop-color="rgb(36.717224%, 57.35321%, 69.998169%)" offset="0.921875"/><stop stop-opacity="1" stop-color="rgb(37.030029%, 57.681274%, 70.350647%)" offset="0.929687"/><stop stop-opacity="1" stop-color="rgb(37.342834%, 58.009338%, 70.703125%)" offset="0.9375"/><stop stop-opacity="1" stop-color="rgb(37.654114%, 58.337402%, 71.055603%)" offset="0.945313"/><stop stop-opacity="1" stop-color="rgb(37.966919%, 58.665466%, 71.408081%)" offset="0.953125"/><stop stop-opacity="1" stop-color="rgb(38.279724%, 58.99353%, 71.760559%)" offset="0.960938"/><stop stop-opacity="1" stop-color="rgb(38.592529%, 59.321594%, 72.113037%)" offset="0.96875"/><stop stop-opacity="1" stop-color="rgb(38.905334%, 59.649658%, 72.465515%)" offset="0.976562"/><stop stop-opacity="1" stop-color="rgb(39.216614%, 59.977722%, 72.817993%)" offset="0.984375"/><stop stop-opacity="1" stop-color="rgb(39.529419%, 60.305786%, 73.170471%)" offset="0.992188"/><stop stop-opacity="1" stop-color="rgb(39.842224%, 60.63385%, 73.522949%)" offset="1"/></linearGradient></defs><g clip-path="url(#2da54a034a)"><g clip-path="url(#c0dcfc1778)"><path stroke-linecap="butt" transform="matrix(0.75, 0, 0, 0.75, 7.502486, 4.778545)" fill="none" stroke-linejoin="miter" d="M 5.001894 -0.00160168 L 176.647731 -0.00160168 C 179.413356 -0.00160168 181.647731 2.237982 181.647731 4.998398 L 181.647731 85.170275 C 181.647731 87.9359 179.413356 90.170275 176.647731 90.170275 L 5.001894 90.170275 C 2.236269 90.170275 0.00189411 87.9359 0.00189411 85.170275 L 0.00189411 4.998398 C 0.00189411 2.237982 2.236269 -0.00160168 5.001894 -0.00160168 Z M 5.001894 -0.00160168 " stroke="url(#8f7335b512)" stroke-width="4" stroke-miterlimit="4"/></g></g><g fill="#003049" fill-opacity="1"><g transform="translate(12.685652, 46.44406)"><g><path d="M 9.8125 -2.859375 C 10.5 -2.859375 11.113281 -2.972656 11.65625 -3.203125 C 12.195312 -3.429688 12.648438 -3.753906 13.015625 -4.171875 C 13.390625 -4.585938 13.675781 -5.085938 13.875 -5.671875 C 14.070312 -6.265625 14.171875 -6.925781 14.171875 -7.65625 L 14.171875 -19.09375 L 17.71875 -19.09375 L 17.71875 -7.65625 C 17.71875 -6.519531 17.535156 -5.46875 17.171875 -4.5 C 16.804688 -3.539062 16.28125 -2.710938 15.59375 -2.015625 C 14.914062 -1.316406 14.085938 -0.769531 13.109375 -0.375 C 12.128906 0.0195312 11.03125 0.21875 9.8125 0.21875 C 8.582031 0.21875 7.476562 0.0195312 6.5 -0.375 C 5.519531 -0.769531 4.6875 -1.316406 4 -2.015625 C 3.320312 -2.710938 2.800781 -3.539062 2.4375 -4.5 C 2.070312 -5.46875 1.890625 -6.519531 1.890625 -7.65625 L 1.890625 -19.09375 L 5.4375 -19.09375 L 5.4375 -7.671875 C 5.4375 -6.941406 5.535156 -6.28125 5.734375 -5.6875 C 5.929688 -5.101562 6.21875 -4.597656 6.59375 -4.171875 C 6.96875 -3.753906 7.425781 -3.429688 7.96875 -3.203125 C 8.507812 -2.972656 9.125 -2.859375 9.8125 -2.859375 Z M 9.8125 -2.859375 "/></g></g></g><g fill="#003049" fill-opacity="1"><g transform="translate(32.29453, 46.44406)"><g><path d="M 8.328125 -9.5 C 8.984375 -9.5 9.550781 -9.578125 10.03125 -9.734375 C 10.519531 -9.898438 10.921875 -10.132812 11.234375 -10.4375 C 11.554688 -10.738281 11.796875 -11.109375 11.953125 -11.546875 C 12.117188 -11.984375 12.203125 -12.46875 12.203125 -13 C 12.203125 -13.507812 12.117188 -13.972656 11.953125 -14.390625 C 11.796875 -14.804688 11.5625 -15.160156 11.25 -15.453125 C 10.9375 -15.742188 10.535156 -15.960938 10.046875 -16.109375 C 9.566406 -16.265625 8.992188 -16.34375 8.328125 -16.34375 L 5.671875 -16.34375 L 5.671875 -9.5 Z M 8.328125 -19.09375 C 9.609375 -19.09375 10.710938 -18.941406 11.640625 -18.640625 C 12.578125 -18.335938 13.347656 -17.914062 13.953125 -17.375 C 14.554688 -16.84375 15.003906 -16.203125 15.296875 -15.453125 C 15.597656 -14.710938 15.75 -13.894531 15.75 -13 C 15.75 -12.082031 15.59375 -11.238281 15.28125 -10.46875 C 14.976562 -9.695312 14.519531 -9.03125 13.90625 -8.46875 C 13.289062 -7.914062 12.515625 -7.484375 11.578125 -7.171875 C 10.648438 -6.867188 9.566406 -6.71875 8.328125 -6.71875 L 5.671875 -6.71875 L 5.671875 0 L 2.125 0 L 2.125 -19.09375 Z M 8.328125 -19.09375 "/></g></g></g><g fill="#003049" fill-opacity="1"><g transform="translate(48.641862, 46.44406)"><g><path d="M 17.859375 -9.578125 L 17.859375 -1.84375 C 16.890625 -1.132812 15.859375 -0.613281 14.765625 -0.28125 C 13.671875 0.0507812 12.5 0.21875 11.25 0.21875 C 9.6875 0.21875 8.273438 -0.0195312 7.015625 -0.5 C 5.753906 -0.988281 4.675781 -1.664062 3.78125 -2.53125 C 2.882812 -3.394531 2.191406 -4.425781 1.703125 -5.625 C 1.222656 -6.820312 0.984375 -8.128906 0.984375 -9.546875 C 0.984375 -10.984375 1.21875 -12.300781 1.6875 -13.5 C 2.15625 -14.695312 2.816406 -15.722656 3.671875 -16.578125 C 4.535156 -17.441406 5.578125 -18.109375 6.796875 -18.578125 C 8.023438 -19.054688 9.398438 -19.296875 10.921875 -19.296875 C 11.691406 -19.296875 12.410156 -19.234375 13.078125 -19.109375 C 13.753906 -18.992188 14.378906 -18.828125 14.953125 -18.609375 C 15.535156 -18.390625 16.0625 -18.125 16.53125 -17.8125 C 17.007812 -17.507812 17.445312 -17.175781 17.84375 -16.8125 L 16.828125 -15.203125 C 16.671875 -14.941406 16.460938 -14.78125 16.203125 -14.71875 C 15.953125 -14.664062 15.675781 -14.734375 15.375 -14.921875 C 15.09375 -15.085938 14.804688 -15.253906 14.515625 -15.421875 C 14.222656 -15.585938 13.894531 -15.734375 13.53125 -15.859375 C 13.175781 -15.984375 12.773438 -16.082031 12.328125 -16.15625 C 11.890625 -16.238281 11.378906 -16.28125 10.796875 -16.28125 C 9.859375 -16.28125 9.007812 -16.117188 8.25 -15.796875 C 7.488281 -15.484375 6.835938 -15.03125 6.296875 -14.4375 C 5.765625 -13.851562 5.351562 -13.144531 5.0625 -12.3125 C 4.769531 -11.488281 4.625 -10.566406 4.625 -9.546875 C 4.625 -8.453125 4.78125 -7.472656 5.09375 -6.609375 C 5.40625 -5.753906 5.84375 -5.03125 6.40625 -4.4375 C 6.976562 -3.84375 7.664062 -3.390625 8.46875 -3.078125 C 9.269531 -2.765625 10.160156 -2.609375 11.140625 -2.609375 C 11.847656 -2.609375 12.476562 -2.679688 13.03125 -2.828125 C 13.582031 -2.984375 14.125 -3.191406 14.65625 -3.453125 L 14.65625 -6.90625 L 12.25 -6.90625 C 12.019531 -6.90625 11.84375 -6.96875 11.71875 -7.09375 C 11.59375 -7.21875 11.53125 -7.375 11.53125 -7.5625 L 11.53125 -9.578125 Z M 17.859375 -9.578125 "/></g></g></g><g fill="#003049" fill-opacity="1"><g transform="translate(67.814986, 46.44406)"><g><path d="M 7.890625 -10.015625 C 8.566406 -10.015625 9.148438 -10.097656 9.640625 -10.265625 C 10.140625 -10.429688 10.550781 -10.660156 10.875 -10.953125 C 11.195312 -11.242188 11.4375 -11.59375 11.59375 -12 C 11.75 -12.40625 11.828125 -12.847656 11.828125 -13.328125 C 11.828125 -14.296875 11.507812 -15.039062 10.875 -15.5625 C 10.238281 -16.082031 9.265625 -16.34375 7.953125 -16.34375 L 5.671875 -16.34375 L 5.671875 -10.015625 Z M 17.03125 0 L 13.828125 0 C 13.210938 0 12.769531 -0.238281 12.5 -0.71875 L 8.484375 -6.828125 C 8.335938 -7.054688 8.171875 -7.21875 7.984375 -7.3125 C 7.804688 -7.40625 7.546875 -7.453125 7.203125 -7.453125 L 5.671875 -7.453125 L 5.671875 0 L 2.125 0 L 2.125 -19.09375 L 7.953125 -19.09375 C 9.242188 -19.09375 10.351562 -18.957031 11.28125 -18.6875 C 12.207031 -18.414062 12.96875 -18.035156 13.5625 -17.546875 C 14.15625 -17.066406 14.59375 -16.488281 14.875 -15.8125 C 15.15625 -15.144531 15.296875 -14.40625 15.296875 -13.59375 C 15.296875 -12.957031 15.203125 -12.351562 15.015625 -11.78125 C 14.828125 -11.207031 14.554688 -10.6875 14.203125 -10.21875 C 13.847656 -9.75 13.40625 -9.335938 12.875 -8.984375 C 12.351562 -8.640625 11.757812 -8.363281 11.09375 -8.15625 C 11.320312 -8.03125 11.53125 -7.875 11.71875 -7.6875 C 11.914062 -7.507812 12.09375 -7.296875 12.25 -7.046875 Z M 17.03125 0 "/></g></g></g><g fill="#003049" fill-opacity="1"><g transform="translate(84.79614, 46.44406)"><g><path d="M 12.21875 -7.203125 L 9.890625 -13.5625 C 9.773438 -13.84375 9.65625 -14.175781 9.53125 -14.5625 C 9.40625 -14.945312 9.28125 -15.363281 9.15625 -15.8125 C 9.039062 -15.363281 8.921875 -14.941406 8.796875 -14.546875 C 8.679688 -14.160156 8.566406 -13.820312 8.453125 -13.53125 L 6.140625 -7.203125 Z M 18.484375 0 L 15.734375 0 C 15.429688 0 15.179688 -0.078125 14.984375 -0.234375 C 14.785156 -0.390625 14.640625 -0.582031 14.546875 -0.8125 L 13.125 -4.703125 L 5.21875 -4.703125 L 3.796875 -0.8125 C 3.722656 -0.601562 3.582031 -0.414062 3.375 -0.25 C 3.175781 -0.0820312 2.925781 0 2.625 0 L -0.140625 0 L 7.375 -19.09375 L 10.984375 -19.09375 Z M 18.484375 0 "/></g></g></g><g fill="#003049" fill-opacity="1"><g transform="translate(103.137374, 46.44406)"><g><path d="M 19.078125 -9.546875 C 19.078125 -8.148438 18.84375 -6.863281 18.375 -5.6875 C 17.90625 -4.519531 17.25 -3.515625 16.40625 -2.671875 C 15.5625 -1.828125 14.546875 -1.171875 13.359375 -0.703125 C 12.171875 -0.234375 10.851562 0 9.40625 0 L 2.125 0 L 2.125 -19.09375 L 9.40625 -19.09375 C 10.851562 -19.09375 12.171875 -18.851562 13.359375 -18.375 C 14.546875 -17.90625 15.5625 -17.25 16.40625 -16.40625 C 17.25 -15.570312 17.90625 -14.566406 18.375 -13.390625 C 18.84375 -12.222656 19.078125 -10.941406 19.078125 -9.546875 Z M 15.4375 -9.546875 C 15.4375 -10.585938 15.296875 -11.523438 15.015625 -12.359375 C 14.742188 -13.191406 14.34375 -13.894531 13.8125 -14.46875 C 13.289062 -15.050781 12.65625 -15.492188 11.90625 -15.796875 C 11.164062 -16.109375 10.332031 -16.265625 9.40625 -16.265625 L 5.6875 -16.265625 L 5.6875 -2.828125 L 9.40625 -2.828125 C 10.332031 -2.828125 11.164062 -2.976562 11.90625 -3.28125 C 12.65625 -3.59375 13.289062 -4.035156 13.8125 -4.609375 C 14.34375 -5.191406 14.742188 -5.894531 15.015625 -6.71875 C 15.296875 -7.550781 15.4375 -8.492188 15.4375 -9.546875 Z M 15.4375 -9.546875 "/></g></g></g><g fill="#003049" fill-opacity="1"><g transform="translate(123.221616, 46.44406)"><g><path d="M 5.6875 -16.265625 L 5.6875 -10.96875 L 12.375 -10.96875 L 12.375 -8.234375 L 5.6875 -8.234375 L 5.6875 -2.84375 L 14.171875 -2.84375 L 14.171875 0 L 2.125 0 L 2.125 -19.09375 L 14.171875 -19.09375 L 14.171875 -16.265625 Z M 5.6875 -16.265625 "/></g></g></g></svg>